<svg width="273" height="53" viewBox="0 0 273 53" fill="none" xmlns="http://www.w3.org/2000/svg">
<path d="M64.624 34.632H70.256C70.4693 36.3387 71.2373 37.7467 72.56 38.856C73.8827 39.9227 75.7387 40.456 78.128 40.456C79.664 40.456 80.8587 40.2853 81.712 39.944C82.5653 39.56 83.1627 39.048 83.504 38.408C83.888 37.768 84.08 37.064 84.08 36.296C84.08 35.3147 83.824 34.568 83.312 34.056C82.8 33.5013 82.0747 33.0533 81.136 32.712C80.1973 32.328 79.088 31.9653 77.808 31.624C76.4 31.24 74.992 30.792 73.584 30.28C72.176 29.768 70.8747 29.1493 69.68 28.424C68.528 27.6987 67.5893 26.8027 66.864 25.736C66.1813 24.6267 65.84 23.2827 65.84 21.704C65.84 20.3813 66.1173 19.144 66.672 17.992C67.2693 16.84 68.1013 15.8587 69.168 15.048C70.2773 14.1947 71.5573 13.5547 73.008 13.128C74.4587 12.6587 76.0587 12.424 77.808 12.424C80.24 12.424 82.288 12.872 83.952 13.768C85.616 14.6213 86.8747 15.8373 87.728 17.416C88.624 18.9947 89.0933 20.808 89.136 22.856H83.76C83.4613 21.064 82.8427 19.7627 81.904 18.952C80.9653 18.0987 79.5573 17.672 77.68 17.672C75.8453 17.672 74.4373 18.0347 73.456 18.76C72.4747 19.4853 71.984 20.4667 71.984 21.704C71.984 22.6427 72.3253 23.4107 73.008 24.008C73.6907 24.5627 74.608 25.0533 75.76 25.48C76.912 25.9067 78.2133 26.3547 79.664 26.824C81.0293 27.2933 82.3307 27.784 83.568 28.296C84.848 28.7653 85.9787 29.3413 86.96 30.024C87.984 30.664 88.7733 31.5173 89.328 32.584C89.9253 33.608 90.224 34.888 90.224 36.424C90.224 38.3013 89.7547 39.944 88.816 41.352C87.8773 42.7173 86.512 43.784 84.72 44.552C82.9707 45.32 80.8373 45.704 78.32 45.704C76.016 45.704 74.0533 45.4267 72.432 44.872C70.8533 44.3173 69.5093 43.592 68.4 42.696C67.3333 41.8 66.5013 40.8613 65.904 39.88C65.3493 38.856 64.9653 37.8747 64.752 36.936C64.5813 35.9973 64.5387 35.2293 64.624 34.632ZM121.36 34.632H127.184C126.842 36.7227 126.032 38.6 124.752 40.264C123.472 41.928 121.786 43.2507 119.696 44.232C117.605 45.2133 115.152 45.704 112.336 45.704C109.008 45.704 106.042 45 103.44 43.592C100.837 42.184 98.7888 40.2427 97.2955 37.768C95.8022 35.2933 95.0555 32.4133 95.0555 29.128C95.0555 25.8 95.7808 22.8987 97.2315 20.424C98.6822 17.9067 100.688 15.944 103.248 14.536C105.808 13.128 108.73 12.424 112.016 12.424C115.472 12.424 118.373 13.1067 120.72 14.472C123.066 15.8373 124.794 17.864 125.904 20.552C127.056 23.1973 127.525 26.504 127.312 30.472H101.135C101.349 32.392 101.925 34.0987 102.864 35.592C103.845 37.0853 105.125 38.2587 106.704 39.112C108.325 39.9653 110.181 40.392 112.272 40.392C114.618 40.392 116.581 39.8587 118.16 38.792C119.738 37.7253 120.805 36.3387 121.36 34.632ZM112.08 17.672C109.306 17.672 107.002 18.4187 105.168 19.912C103.333 21.3627 102.117 23.304 101.52 25.736H121.168C120.997 23.1333 120.058 21.1493 118.352 19.784C116.645 18.376 114.554 17.672 112.08 17.672ZM146.966 45.64C144.193 45.64 141.675 44.936 139.414 43.528C137.153 42.12 135.361 40.1787 134.038 37.704C132.758 35.1867 132.118 32.3067 132.118 29.064C132.118 25.8213 132.758 22.9627 134.038 20.488C135.318 17.9707 137.067 16.008 139.286 14.6C141.505 13.1493 144.065 12.424 146.966 12.424C149.483 12.424 151.574 12.8507 153.238 13.704C154.902 14.5573 156.203 15.752 157.142 17.288C158.081 18.824 158.742 20.5947 159.126 22.6C159.553 24.6053 159.766 26.76 159.766 29.064C159.766 30.7707 159.553 32.584 159.126 34.504C158.699 36.424 158.017 38.2373 157.078 39.944C156.139 41.6507 154.838 43.0373 153.174 44.104C151.51 45.128 149.441 45.64 146.966 45.64ZM148.694 40.328C150.955 40.328 152.854 39.8373 154.39 38.856C155.969 37.832 157.142 36.4667 157.91 34.76C158.678 33.0533 159.062 31.1547 159.062 29.064C159.062 26.8027 158.657 24.8187 157.846 23.112C157.078 21.4053 155.905 20.0827 154.326 19.144C152.79 18.2053 150.913 17.736 148.694 17.736C145.366 17.736 142.785 18.8027 140.95 20.936C139.158 23.0693 138.262 25.7787 138.262 29.064C138.262 31.2827 138.71 33.2453 139.606 34.952C140.502 36.616 141.718 37.9387 143.254 38.92C144.833 39.8587 146.646 40.328 148.694 40.328ZM159.062 0.263996H165.206V45H159.574C159.446 44.0613 159.318 42.9093 159.19 41.544C159.105 40.1787 159.062 39.0053 159.062 38.024V0.263996ZM187.529 45.64C184.798 45.64 182.302 44.936 180.041 43.528C177.779 42.12 175.987 40.1787 174.665 37.704C173.342 35.1867 172.681 32.3067 172.681 29.064C172.681 25.8213 173.342 22.9627 174.665 20.488C176.03 17.9707 177.886 16.008 180.233 14.6C182.579 13.1493 185.203 12.424 188.105 12.424C191.305 12.424 193.779 13.1707 195.529 14.664C197.321 16.1573 198.558 18.1627 199.241 20.68C199.966 23.1973 200.329 25.992 200.329 29.064C200.329 30.7707 200.115 32.584 199.689 34.504C199.262 36.424 198.579 38.2373 197.641 39.944C196.702 41.6507 195.401 43.0373 193.737 44.104C192.073 45.128 190.003 45.64 187.529 45.64ZM189.257 40.328C191.518 40.328 193.417 39.8373 194.953 38.856C196.531 37.832 197.705 36.4667 198.473 34.76C199.241 33.0533 199.625 31.1547 199.625 29.064C199.625 26.8027 199.219 24.8187 198.409 23.112C197.641 21.4053 196.467 20.0827 194.889 19.144C193.353 18.2053 191.475 17.736 189.257 17.736C185.929 17.736 183.347 18.8027 181.513 20.936C179.721 23.0693 178.825 25.7787 178.825 29.064C178.825 31.2827 179.273 33.2453 180.169 34.952C181.065 36.616 182.281 37.9387 183.817 38.92C185.395 39.8587 187.209 40.328 189.257 40.328ZM199.625 13.064H205.769V45H200.137C200.137 45 200.094 44.616 200.009 43.848C199.923 43.0373 199.838 42.0773 199.753 40.968C199.667 39.8587 199.625 38.8773 199.625 38.024V13.064ZM211.542 13.064H232.214V18.376H211.542V13.064ZM218.838 4.616H224.918V45H218.838V4.616ZM250.654 45.64C247.923 45.64 245.427 44.936 243.166 43.528C240.904 42.12 239.112 40.1787 237.79 37.704C236.467 35.1867 235.806 32.3067 235.806 29.064C235.806 25.8213 236.467 22.9627 237.79 20.488C239.155 17.9707 241.011 16.008 243.358 14.6C245.704 13.1493 248.328 12.424 251.23 12.424C254.43 12.424 256.904 13.1707 258.654 14.664C260.446 16.1573 261.683 18.1627 262.366 20.68C263.091 23.1973 263.454 25.992 263.454 29.064C263.454 30.7707 263.24 32.584 262.814 34.504C262.387 36.424 261.704 38.2373 260.766 39.944C259.827 41.6507 258.526 43.0373 256.862 44.104C255.198 45.128 253.128 45.64 250.654 45.64ZM252.382 40.328C254.643 40.328 256.542 39.8373 258.078 38.856C259.656 37.832 260.83 36.4667 261.598 34.76C262.366 33.0533 262.75 31.1547 262.75 29.064C262.75 26.8027 262.344 24.8187 261.534 23.112C260.766 21.4053 259.592 20.0827 258.014 19.144C256.478 18.2053 254.6 17.736 252.382 17.736C249.054 17.736 246.472 18.8027 244.638 20.936C242.846 23.0693 241.95 25.7787 241.95 29.064C241.95 31.2827 242.398 33.2453 243.294 34.952C244.19 36.616 245.406 37.9387 246.942 38.92C248.52 39.8587 250.334 40.328 252.382 40.328ZM262.75 13.064H268.894V45H263.262C263.262 45 263.219 44.616 263.134 43.848C263.048 43.0373 262.963 42.0773 262.878 40.968C262.792 39.8587 262.75 38.8773 262.75 38.024V13.064Z" fill="white"/>
<path d="M56 28.9778L42.0207 5.04458L13.9793 5L2.15222e-06 29.0222L13.9793 52.9555L42.0207 53L56 28.9778ZM49.1474 28.811L45.5146 35.024L38.2491 35.024L34.6163 28.811L38.2491 22.598L45.5146 22.598L49.1474 28.811ZM41.8854 16.322L38.2527 22.5351L30.9871 22.5351L27.3544 16.322L23.7216 22.535L16.4525 22.535L12.8197 16.3219L16.4525 10.1088L23.7216 10.1088L27.3544 16.3217L30.9872 10.1088L38.2527 10.1088L41.8854 16.3217L41.8854 16.322ZM41.8854 41.2556L38.2527 47.4686L30.9871 47.4686L27.3544 41.2557L23.7216 47.4687L16.4525 47.4687L12.8197 41.2558L16.4525 35.0429L23.7216 35.0429L27.3544 41.2557L30.9871 35.0427L38.2527 35.0427L41.8854 41.2556ZM34.605 28.8109L30.9723 35.024L23.7067 35.024L20.0814 28.826L16.46 35.024L9.19083 35.024L5.55807 28.811L9.19083 22.598L16.46 22.598L20.0814 28.7961L23.7067 22.598L30.9723 22.598L34.605 28.811L34.605 28.8109Z" fill="#CB4335"/>
</svg>
